<svg id="图层_1" data-name="图层 1" xmlns="http://www.w3.org/2000/svg" viewBox="0 0 363.44 299.6"><defs><style>.cls-1{fill:#040000;}.cls-2{fill:none;}</style></defs><title>图标-鼹鼠</title><path d="M434.26,325.41c-13.86-13-14.94-28.3-8.05-44.41,5.62-13.14,12.49-25.74,18.88-38.54a20.79,20.79,0,0,1,3-4.07c3.9-4.56,8.69-6,14.61-3.87-1.87,4.4-3.71,8.75-5.57,13.1q-7.09,16.54-14.21,33.09c-1,2.42-1.79,4.84.76,6.83,3,2.31,5.72,1.63,7.75-2q10.85-19.45,21.59-39l3.61-6.48,8.44,4c-2.93,8.11-5.88,16.31-8.84,24.51s-5.86,16.24-8.8,24.35c-1,2.7-.74,5,2.05,6.45s5.24.67,6.88-2.7c4.2-8.62,8.33-17.27,12.48-25.9l9.66-20.13c7.35,3.73,9.89,8.86,8,16.75A94.19,94.19,0,0,1,502,281.58c-4.15,10-8.4,20-13.16,29.74-4.58,9.36-11.7,16.48-21.71,20a35.19,35.19,0,0,1-10.5,1.77c-2.51.07-3.6.77-4.57,3.07Q417.64,418,383,499.71c-2.25,5.33-3.82,6.5-9.56,6a25.59,25.59,0,0,1-17.54-8.94c-2.28-2.66-2.44-5.34-.81-8.68q39-79.91,77.83-159.91Z" transform="translate(-143.62 -206.18)"/><path class="cls-1" d="M183.23,273.73a37.29,37.29,0,1,0,37.29-37.28A37.3,37.3,0,0,0,183.23,273.73Zm20.7,6.84,21.41-8.8-20.46-13.56,2.83-5.24,29.4,20.7L205.83,283.9Z" transform="translate(-143.62 -206.18)"/><path class="cls-1" d="M351,268.83a37.29,37.29,0,1,0,37.29,37.29A37.29,37.29,0,0,0,351,268.83Zm14.69,47.45L334.4,306.05l29.4-20.69,2.83,5.23-20.46,13.56,21.41,8.8Z" transform="translate(-143.62 -206.18)"/><circle class="cls-2" cx="206.17" cy="100.56" r="52.67"/><path class="cls-2" d="M253.55,384.5a25.1,25.1,0,0,0,15.92-5.56,25.1,25.1,0,0,0,15.92,5.56c10.54,0,19.47-6.22,22.62-14.82l-76.93.37C234.35,378.46,243.16,384.5,253.55,384.5Z" transform="translate(-143.62 -206.18)"/><circle class="cls-2" cx="206.17" cy="100.56" r="52.67"/><path class="cls-1" d="M416.93,310A103.78,103.78,0,0,0,248,229.18a52.64,52.64,0,0,1,14.47,74.29H263a22.79,22.79,0,1,1-22.78,22.78,23.09,23.09,0,0,1,.51-4.81,52.56,52.56,0,0,1-30.26,3.81V484.59H416.93V351.85l-.1-37.21C416.9,313.09,416.93,311.53,416.93,310ZM285.39,384.5a25.1,25.1,0,0,1-15.92-5.56,25.1,25.1,0,0,1-15.92,5.56c-10.39,0-19.2-6-22.47-14.45l76.93-.37C304.86,378.28,295.93,384.5,285.39,384.5Zm64.4-25.09a52.67,52.67,0,1,1,52.67-52.67A52.67,52.67,0,0,1,349.79,359.41Z" transform="translate(-143.62 -206.18)"/><circle class="cls-1" cx="118.4" cy="122.26" r="7.53"/><circle class="cls-1" cx="54.08" cy="232.39" r="54.08"/><circle class="cls-1" cx="273.31" cy="234.15" r="54.08"/></svg>